<svg width="162" height="32" viewBox="0 0 162 32" fill="none" xmlns="http://www.w3.org/2000/svg">
<rect width="162" height="32" rx="4" fill="black"/>
<path fill-rule="evenodd" clip-rule="evenodd" d="M11.5956 14.6625L13.3817 8L26 11.3818L24.7817 15.9255L16.7088 13.7621L16.1411 15.8792L11.5956 14.6625ZM11.2183 16.0728L19.2912 18.2363L19.8589 16.1192L24.4044 17.3375L22.6183 24L10 20.6182L11.2183 16.0728Z" fill="#F7F7F8"/>
<path d="M38.169 20.11C37.465 20.11 36.8197 19.9633 36.233 19.67C35.6537 19.3767 35.1917 18.933 34.847 18.339C34.5023 17.7377 34.33 17.008 34.33 16.15C34.33 15.3507 34.4987 14.654 34.836 14.06C35.1733 13.4587 35.628 12.9967 36.2 12.674C36.7793 12.3513 37.4173 12.19 38.114 12.19C38.7227 12.19 39.2873 12.3147 39.808 12.564C40.336 12.8133 40.765 13.1727 41.095 13.642L40.072 14.621C39.786 14.269 39.4927 14.0197 39.192 13.873C38.8913 13.719 38.5467 13.642 38.158 13.642C37.7033 13.642 37.3037 13.741 36.959 13.939C36.6143 14.1297 36.343 14.4157 36.145 14.797C35.9543 15.171 35.859 15.622 35.859 16.15C35.859 16.6927 35.958 17.1547 36.156 17.536C36.354 17.91 36.6253 18.196 36.97 18.394C37.322 18.5847 37.7217 18.68 38.169 18.68C38.455 18.68 38.7117 18.6507 38.939 18.592C39.1737 18.5333 39.39 18.4453 39.588 18.328V17.272H38.048V15.908H41.084V19.098C40.688 19.406 40.2553 19.6517 39.786 19.835C39.324 20.0183 38.785 20.11 38.169 20.11ZM44.949 20.11C44.3623 20.11 43.849 19.9853 43.409 19.736C42.969 19.4867 42.628 19.1347 42.386 18.68C42.144 18.2253 42.023 17.701 42.023 17.107C42.023 16.5203 42.1403 15.996 42.375 15.534C42.617 15.072 42.9506 14.7163 43.376 14.467C43.8013 14.2103 44.2853 14.082 44.828 14.082C45.6933 14.082 46.3533 14.3533 46.808 14.896C47.27 15.4313 47.501 16.1427 47.501 17.03V17.525H42.804L43.398 16.942C43.398 17.6167 43.53 18.1007 43.794 18.394C44.058 18.6873 44.443 18.834 44.949 18.834C45.2423 18.834 45.5063 18.79 45.741 18.702C45.9756 18.6067 46.2103 18.46 46.445 18.262L47.292 19.274C46.9913 19.5527 46.6356 19.7617 46.225 19.901C45.8216 20.0403 45.3963 20.11 44.949 20.11ZM44.828 15.27C44.476 15.27 44.1863 15.3653 43.959 15.556C43.7316 15.7393 43.574 16.0143 43.486 16.381H46.104C46.06 16.029 45.9243 15.7577 45.697 15.567C45.477 15.369 45.1873 15.27 44.828 15.27ZM50.9379 20.11C50.2999 20.11 49.8049 19.9487 49.4529 19.626C49.1009 19.296 48.9249 18.823 48.9249 18.207V15.391H47.9789V14.192H48.9249V12.773H50.3329V14.192H51.9609V15.391H50.3329V18.02C50.3329 18.2693 50.4136 18.4673 50.5749 18.614C50.7436 18.7533 50.9709 18.823 51.2569 18.823C51.3889 18.823 51.5209 18.812 51.6529 18.79C51.7849 18.768 51.9279 18.735 52.0819 18.691V19.901C51.9279 19.967 51.7483 20.0183 51.5429 20.055C51.3449 20.0917 51.1433 20.11 50.9379 20.11ZM55.7485 14.192H57.1565V20H55.7485V14.192ZM55.7155 12.047H57.1895V13.521H55.7155V12.047ZM60.9819 20.11C60.3439 20.11 59.8489 19.9487 59.4969 19.626C59.1449 19.296 58.9689 18.823 58.9689 18.207V15.391H58.0229V14.192H58.9689V12.773H60.3769V14.192H62.0049V15.391H60.3769V18.02C60.3769 18.2693 60.4575 18.4673 60.6189 18.614C60.7875 18.7533 61.0149 18.823 61.3009 18.823C61.4329 18.823 61.5649 18.812 61.6969 18.79C61.8289 18.768 61.9719 18.735 62.1259 18.691V19.901C61.9719 19.967 61.7922 20.0183 61.5869 20.055C61.3889 20.0917 61.1872 20.11 60.9819 20.11ZM68.3114 20.11C67.7394 20.11 67.2371 19.9853 66.8044 19.736C66.3717 19.4793 66.0381 19.1237 65.8034 18.669C65.5761 18.2143 65.4624 17.69 65.4624 17.096C65.4624 16.502 65.5761 15.9777 65.8034 15.523C66.0381 15.0683 66.3717 14.7163 66.8044 14.467C67.2371 14.2103 67.7394 14.082 68.3114 14.082C68.8834 14.082 69.3857 14.2103 69.8184 14.467C70.2511 14.7163 70.5811 15.0683 70.8084 15.523C71.0431 15.9777 71.1604 16.502 71.1604 17.096C71.1604 17.69 71.0431 18.2143 70.8084 18.669C70.5811 19.1237 70.2511 19.4793 69.8184 19.736C69.3857 19.9853 68.8834 20.11 68.3114 20.11ZM68.3224 18.812C68.6011 18.812 68.8467 18.746 69.0594 18.614C69.2721 18.4747 69.4371 18.2767 69.5544 18.02C69.6717 17.7633 69.7304 17.4553 69.7304 17.096C69.7304 16.7367 69.6717 16.4287 69.5544 16.172C69.4371 15.9153 69.2721 15.721 69.0594 15.589C68.8467 15.4497 68.6011 15.38 68.3224 15.38C68.0437 15.38 67.7944 15.4497 67.5744 15.589C67.3617 15.721 67.1931 15.9153 67.0684 16.172C66.9511 16.4287 66.8924 16.7367 66.8924 17.096C66.8924 17.4553 66.9511 17.7633 67.0684 18.02C67.1931 18.2767 67.3617 18.4747 67.5744 18.614C67.7944 18.746 68.0437 18.812 68.3224 18.812ZM72.2807 14.192H73.6887V15.017L73.8647 15.083C74.0114 14.7823 74.224 14.5403 74.5027 14.357C74.7814 14.1737 75.1224 14.082 75.5257 14.082C76.149 14.082 76.633 14.28 76.9777 14.676C77.3224 15.072 77.4947 15.6037 77.4947 16.271V20H76.0867V16.645C76.0867 16.2197 75.9877 15.9043 75.7897 15.699C75.5917 15.4863 75.313 15.38 74.9537 15.38C74.675 15.38 74.422 15.4533 74.1947 15.6C73.9674 15.7393 73.7987 15.9263 73.6887 16.161V20H72.2807V14.192ZM85.0251 20.11C84.3285 20.11 83.6905 19.9487 83.1111 19.626C82.5391 19.3033 82.0845 18.845 81.7471 18.251C81.4098 17.6497 81.2411 16.9493 81.2411 16.15C81.2411 15.3507 81.4098 14.654 81.7471 14.06C82.0845 13.4587 82.5391 12.9967 83.1111 12.674C83.6905 12.3513 84.3285 12.19 85.0251 12.19C85.6338 12.19 86.1985 12.3147 86.7191 12.564C87.2471 12.8133 87.6761 13.1727 88.0061 13.642L86.9831 14.621C86.6971 14.269 86.4038 14.0197 86.1031 13.873C85.8025 13.719 85.4578 13.642 85.0691 13.642C84.6145 13.642 84.2148 13.741 83.8701 13.939C83.5255 14.1297 83.2541 14.4157 83.0561 14.797C82.8655 15.171 82.7701 15.622 82.7701 16.15C82.7701 16.678 82.8655 17.1327 83.0561 17.514C83.2541 17.888 83.5255 18.174 83.8701 18.372C84.2148 18.5627 84.6145 18.658 85.0691 18.658C85.4578 18.658 85.8025 18.5847 86.1031 18.438C86.4038 18.284 86.6971 18.031 86.9831 17.679L88.0061 18.658C87.6761 19.1273 87.2471 19.4867 86.7191 19.736C86.1985 19.9853 85.6338 20.11 85.0251 20.11ZM89.0278 14.192H90.4358V15.017L90.6118 15.083C90.7658 14.7677 90.9748 14.522 91.2388 14.346C91.5028 14.17 91.8034 14.082 92.1408 14.082C92.3021 14.082 92.4671 14.1003 92.6358 14.137V15.567C92.3864 15.479 92.1041 15.435 91.7888 15.435C91.4954 15.435 91.2241 15.5193 90.9748 15.688C90.7328 15.8493 90.5531 16.062 90.4358 16.326V20H89.0278V14.192ZM96.0818 20.11C95.4951 20.11 94.9818 19.9853 94.5418 19.736C94.1018 19.4867 93.7608 19.1347 93.5188 18.68C93.2768 18.2253 93.1558 17.701 93.1558 17.107C93.1558 16.5203 93.2731 15.996 93.5078 15.534C93.7498 15.072 94.0834 14.7163 94.5088 14.467C94.9341 14.2103 95.4181 14.082 95.9608 14.082C96.8261 14.082 97.4861 14.3533 97.9408 14.896C98.4028 15.4313 98.6338 16.1427 98.6338 17.03V17.525H93.9368L94.5308 16.942C94.5308 17.6167 94.6628 18.1007 94.9268 18.394C95.1908 18.6873 95.5758 18.834 96.0818 18.834C96.3751 18.834 96.6391 18.79 96.8738 18.702C97.1084 18.6067 97.3431 18.46 97.5778 18.262L98.4248 19.274C98.1241 19.5527 97.7684 19.7617 97.3578 19.901C96.9544 20.0403 96.5291 20.11 96.0818 20.11ZM95.9608 15.27C95.6088 15.27 95.3191 15.3653 95.0918 15.556C94.8644 15.7393 94.7068 16.0143 94.6188 16.381H97.2368C97.1928 16.029 97.0571 15.7577 96.8298 15.567C96.6098 15.369 96.3201 15.27 95.9608 15.27ZM101.202 20.11C100.688 20.11 100.252 19.9523 99.8928 19.637C99.5408 19.3143 99.3648 18.8633 99.3648 18.284C99.3648 17.7193 99.5664 17.2757 99.9698 16.953C100.373 16.623 100.952 16.458 101.708 16.458H103.226V17.47H101.686C101.392 17.47 101.165 17.5323 101.004 17.657C100.85 17.7743 100.773 17.9503 100.773 18.185C100.773 18.3977 100.853 18.57 101.015 18.702C101.183 18.834 101.4 18.9 101.664 18.9C101.957 18.9 102.225 18.8303 102.467 18.691C102.709 18.5443 102.903 18.361 103.05 18.141V16.26C103.05 15.9667 102.951 15.754 102.753 15.622C102.562 15.4827 102.316 15.413 102.016 15.413C101.708 15.413 101.407 15.4717 101.114 15.589C100.828 15.7063 100.531 15.8787 100.223 16.106L99.5738 15.017C99.9331 14.7163 100.322 14.4853 100.74 14.324C101.158 14.1627 101.609 14.082 102.093 14.082C102.775 14.082 103.339 14.258 103.787 14.61C104.234 14.962 104.458 15.5157 104.458 16.271V20H103.05V19.34L102.874 19.274C102.676 19.5527 102.441 19.7617 102.17 19.901C101.898 20.0403 101.576 20.11 101.202 20.11ZM108.183 20.11C107.545 20.11 107.05 19.9487 106.698 19.626C106.346 19.296 106.17 18.823 106.17 18.207V15.391H105.224V14.192H106.17V12.773H107.578V14.192H109.206V15.391H107.578V18.02C107.578 18.2693 107.659 18.4673 107.82 18.614C107.989 18.7533 108.216 18.823 108.502 18.823C108.634 18.823 108.766 18.812 108.898 18.79C109.03 18.768 109.173 18.735 109.327 18.691V19.901C109.173 19.967 108.993 20.0183 108.788 20.055C108.59 20.0917 108.388 20.11 108.183 20.11ZM112.687 20.11C112.115 20.11 111.613 19.9853 111.18 19.736C110.748 19.4793 110.414 19.1237 110.179 18.669C109.952 18.2143 109.838 17.69 109.838 17.096C109.838 16.502 109.952 15.9777 110.179 15.523C110.414 15.0683 110.748 14.7163 111.18 14.467C111.613 14.2103 112.115 14.082 112.687 14.082C113.259 14.082 113.762 14.2103 114.194 14.467C114.627 14.7163 114.957 15.0683 115.184 15.523C115.419 15.9777 115.536 16.502 115.536 17.096C115.536 17.69 115.419 18.2143 115.184 18.669C114.957 19.1237 114.627 19.4793 114.194 19.736C113.762 19.9853 113.259 20.11 112.687 20.11ZM112.698 18.812C112.977 18.812 113.223 18.746 113.435 18.614C113.648 18.4747 113.813 18.2767 113.93 18.02C114.048 17.7633 114.106 17.4553 114.106 17.096C114.106 16.7367 114.048 16.4287 113.93 16.172C113.813 15.9153 113.648 15.721 113.435 15.589C113.223 15.4497 112.977 15.38 112.698 15.38C112.42 15.38 112.17 15.4497 111.95 15.589C111.738 15.721 111.569 15.9153 111.444 16.172C111.327 16.4287 111.268 16.7367 111.268 17.096C111.268 17.4553 111.327 17.7633 111.444 18.02C111.569 18.2767 111.738 18.4747 111.95 18.614C112.17 18.746 112.42 18.812 112.698 18.812ZM116.657 14.192H118.065V15.017L118.241 15.083C118.395 14.7677 118.604 14.522 118.868 14.346C119.132 14.17 119.432 14.082 119.77 14.082C119.931 14.082 120.096 14.1003 120.265 14.137V15.567C120.015 15.479 119.733 15.435 119.418 15.435C119.124 15.435 118.853 15.5193 118.604 15.688C118.362 15.8493 118.182 16.062 118.065 16.326V20H116.657V14.192ZM126.381 20.11C125.787 20.11 125.244 20.0073 124.753 19.802C124.262 19.5967 123.851 19.3107 123.521 18.944L124.478 17.866C124.735 18.13 125.028 18.3353 125.358 18.482C125.688 18.6287 126.022 18.702 126.359 18.702C126.623 18.702 126.85 18.6653 127.041 18.592C127.232 18.5113 127.375 18.4013 127.47 18.262C127.565 18.1227 127.613 17.9613 127.613 17.778C127.613 17.5213 127.543 17.3197 127.404 17.173C127.265 17.0263 127.008 16.9017 126.634 16.799L125.754 16.568C125.16 16.4067 124.705 16.1463 124.39 15.787C124.082 15.4203 123.928 14.9767 123.928 14.456C123.928 13.994 124.031 13.5943 124.236 13.257C124.441 12.9123 124.735 12.6483 125.116 12.465C125.497 12.2817 125.941 12.19 126.447 12.19C126.953 12.19 127.433 12.278 127.888 12.454C128.35 12.63 128.757 12.883 129.109 13.213L128.207 14.357C127.679 13.851 127.096 13.598 126.458 13.598C126.245 13.598 126.062 13.6273 125.908 13.686C125.754 13.7447 125.633 13.829 125.545 13.939C125.464 14.049 125.424 14.181 125.424 14.335C125.424 14.555 125.501 14.731 125.655 14.863C125.809 14.9877 126.044 15.094 126.359 15.182L127.338 15.457C127.961 15.633 128.42 15.8933 128.713 16.238C129.006 16.5827 129.153 17.0483 129.153 17.635C129.153 18.1483 129.028 18.592 128.779 18.966C128.53 19.34 128.192 19.626 127.767 19.824C127.349 20.0147 126.887 20.11 126.381 20.11ZM132.622 20.11C131.984 20.11 131.489 19.9487 131.137 19.626C130.785 19.296 130.609 18.823 130.609 18.207V15.391H129.663V14.192H130.609V12.773H132.017V14.192H133.645V15.391H132.017V18.02C132.017 18.2693 132.097 18.4673 132.259 18.614C132.427 18.7533 132.655 18.823 132.941 18.823C133.073 18.823 133.205 18.812 133.337 18.79C133.469 18.768 133.612 18.735 133.766 18.691V19.901C133.612 19.967 133.432 20.0183 133.227 20.055C133.029 20.0917 132.827 20.11 132.622 20.11ZM137.126 20.11C136.554 20.11 136.052 19.9853 135.619 19.736C135.186 19.4793 134.853 19.1237 134.618 18.669C134.391 18.2143 134.277 17.69 134.277 17.096C134.277 16.502 134.391 15.9777 134.618 15.523C134.853 15.0683 135.186 14.7163 135.619 14.467C136.052 14.2103 136.554 14.082 137.126 14.082C137.698 14.082 138.2 14.2103 138.633 14.467C139.066 14.7163 139.396 15.0683 139.623 15.523C139.858 15.9777 139.975 16.502 139.975 17.096C139.975 17.69 139.858 18.2143 139.623 18.669C139.396 19.1237 139.066 19.4793 138.633 19.736C138.2 19.9853 137.698 20.11 137.126 20.11ZM137.137 18.812C137.416 18.812 137.661 18.746 137.874 18.614C138.087 18.4747 138.252 18.2767 138.369 18.02C138.486 17.7633 138.545 17.4553 138.545 17.096C138.545 16.7367 138.486 16.4287 138.369 16.172C138.252 15.9153 138.087 15.721 137.874 15.589C137.661 15.4497 137.416 15.38 137.137 15.38C136.858 15.38 136.609 15.4497 136.389 15.589C136.176 15.721 136.008 15.9153 135.883 16.172C135.766 16.4287 135.707 16.7367 135.707 17.096C135.707 17.4553 135.766 17.7633 135.883 18.02C136.008 18.2767 136.176 18.4747 136.389 18.614C136.609 18.746 136.858 18.812 137.137 18.812ZM141.095 14.192H142.503V15.017L142.679 15.083C142.833 14.7677 143.042 14.522 143.306 14.346C143.57 14.17 143.871 14.082 144.208 14.082C144.369 14.082 144.534 14.1003 144.703 14.137V15.567C144.454 15.479 144.171 15.435 143.856 15.435C143.563 15.435 143.291 15.5193 143.042 15.688C142.8 15.8493 142.62 16.062 142.503 16.326V20H141.095V14.192ZM148.149 20.11C147.562 20.11 147.049 19.9853 146.609 19.736C146.169 19.4867 145.828 19.1347 145.586 18.68C145.344 18.2253 145.223 17.701 145.223 17.107C145.223 16.5203 145.34 15.996 145.575 15.534C145.817 15.072 146.151 14.7163 146.576 14.467C147.001 14.2103 147.485 14.082 148.028 14.082C148.893 14.082 149.553 14.3533 150.008 14.896C150.47 15.4313 150.701 16.1427 150.701 17.03V17.525H146.004L146.598 16.942C146.598 17.6167 146.73 18.1007 146.994 18.394C147.258 18.6873 147.643 18.834 148.149 18.834C148.442 18.834 148.706 18.79 148.941 18.702C149.176 18.6067 149.41 18.46 149.645 18.262L150.492 19.274C150.191 19.5527 149.836 19.7617 149.425 19.901C149.022 20.0403 148.596 20.11 148.149 20.11ZM148.028 15.27C147.676 15.27 147.386 15.3653 147.159 15.556C146.932 15.7393 146.774 16.0143 146.686 16.381H149.304C149.26 16.029 149.124 15.7577 148.897 15.567C148.677 15.369 148.387 15.27 148.028 15.27Z" fill="white"/>
</svg>
